# xmcd
#
# Track frame offsets: 
#        150
#        21017
#        47552
#        68264
#        94230
#        115737
#        140748
#        165501
#        192912
#        214971
#        237627
#        261395
#
# Disc length: 3788 seconds
#
# Revision: 1
# Processed by: cddbd v1.5.2PL0 Copyright (c) Steve Scherf et al.
# Submitted via: ExactAudioCopy v0.99pb5
#
DISCID=aa0eca0c
DTITLE=Various Artist - Homenaje Al Grupo Niche
DYEAR=2002
DGENRE=Salsa
TTITLE0=Como Podre Disimular - Andy Montañez
TTITLE1=La Negra No Quiere - Luisito Carrion
TTITLE2=La Magia De Tus Besos - Charlie Cardona
TTITLE3=Ana Mile - Mariono Civico
TTITLE4=Sin Sentimiento - Grupo Gale
TTITLE5=Nuestro Sueño - David Pabon
TTITLE6=Una Aventura - Andy Montañez
TTITLE7=Del Puente Pa Alla - Luisito Carrion
TTITLE8=Solo Un Cariño - Charlie Cardona
TTITLE9=Mi Pueblo Natal - Luis Castro
TTITLE10=Tapando El Huego - Grupo Gale
TTITLE11=Miserable - David Pabon
EXTD=YEAR: 2002
EXTT0=
EXTT1=
EXTT2=
EXTT3=
EXTT4=
EXTT5=
EXTT6=
EXTT7=
EXTT8=
EXTT9=
EXTT10=
EXTT11=
PLAYORDER=
